<svg width="500" height="500" viewBox="0 0 500 500" fill="none" xmlns="http://www.w3.org/2000/svg">
<rect width="500" height="500" rx="250" fill="#4351FC"/>
<path d="M313.246 158.754C293.555 139.062 266.848 128 239 128C211.152 128 184.445 139.062 164.754 158.754C145.062 178.445 134 205.152 134 233C134 260.848 145.062 287.555 164.754 307.246L239 233L313.246 158.754Z" fill="white"/>
<path d="M334.623 137.623C339.498 132.748 343.365 126.96 346.004 120.591C348.642 114.221 350 107.394 350 100.5C350 93.6056 348.642 86.7787 346.004 80.4091C343.365 74.0395 339.498 68.252 334.623 63.3769C329.748 58.5018 323.96 54.6347 317.591 51.9963C311.221 49.358 304.394 48 297.5 48C290.606 48 283.779 49.358 277.409 51.9963C271.04 54.6347 265.252 58.5018 260.377 63.3769L297.5 100.5L334.623 137.623Z" fill="white"/>
<rect x="159.228" y="164.537" width="143.21" height="104.972" transform="rotate(-45 159.228 164.537)" fill="white"/>
<path d="M186.754 341.246C206.445 360.938 233.152 372 261 372C288.848 372 315.555 360.938 335.246 341.246C354.938 321.555 366 294.848 366 267C366 239.152 354.938 212.445 335.246 192.754L261 267L186.754 341.246Z" fill="white"/>
<path d="M165.377 362.377C160.502 367.252 156.635 373.04 153.996 379.409C151.358 385.779 150 392.606 150 399.5C150 406.394 151.358 413.221 153.996 419.591C156.635 425.96 160.502 431.748 165.377 436.623C170.252 441.498 176.04 445.365 182.409 448.004C188.779 450.642 195.606 452 202.5 452C209.394 452 216.221 450.642 222.591 448.004C228.96 445.365 234.748 441.498 239.623 436.623L202.5 399.5L165.377 362.377Z" fill="white"/>
<rect x="340.772" y="335.463" width="143.21" height="104.972" transform="rotate(135 340.772 335.463)" fill="white"/>
</svg>
